<svg width="26" height="32" viewBox="0 0 26 32" fill="none" xmlns="http://www.w3.org/2000/svg">
<path fill-rule="evenodd" clip-rule="evenodd" d="M24.9653 10.4536L21.9138 23.5313C21.7026 24.4365 20.8956 25.0768 19.9661 25.0768H6.03348C5.10399 25.0768 4.29701 24.4365 4.0858 23.5313L1.03429 10.4536C0.876676 9.77808 1.08031 9.06915 1.57238 8.58028L6.89025 3.29703L9.94502 0.262143C10.5103 -0.299425 11.4724 0.100947 11.4724 0.89773V6.45214C11.4724 7.10211 11.1107 7.68581 10.7614 8.23396C10.4993 8.64522 10.3475 9.13354 10.3475 9.65733C10.3475 11.1222 11.535 12.3097 12.9998 12.3097C14.4647 12.3097 15.6522 11.1222 15.6522 9.65733C15.6522 9.13353 15.5003 8.64518 15.2383 8.23392C14.889 7.68576 14.5272 7.10204 14.5272 6.45204V0.897731C14.5272 0.100947 15.4893 -0.299425 16.0546 0.262143L19.1093 3.29703L24.4272 8.58028C24.9193 9.06915 25.1229 9.77808 24.9653 10.4536Z" fill="url(#paint0_linear_1266_15457)"/>
<path d="M1.0481 29.5859C1.0481 30.6905 1.94353 31.5859 3.0481 31.5859H22.9523C24.0569 31.5859 24.9523 30.6905 24.9523 29.5859V24.8935C24.9523 23.7889 24.0569 22.8935 22.9523 22.8935H3.04809C1.94352 22.8935 1.0481 23.7889 1.0481 24.8935V29.5859Z" fill="#FFCF00"/>
<defs>
<linearGradient id="paint0_linear_1266_15457" x1="16.505" y1="4.58445e-07" x2="13.0413" y2="24.4441" gradientUnits="userSpaceOnUse">
<stop stop-color="#FF6B00"/>
<stop offset="1" stop-color="#FF8A36"/>
</linearGradient>
</defs>
</svg>
