<svg width="20" height="22" viewBox="0 0 20 22" fill="none" xmlns="http://www.w3.org/2000/svg">
<path d="M18.3025 13.6444C18.5239 13.8634 18.6995 14.1233 18.8191 14.4092C18.9388 14.6952 19.0003 15.0017 19 15.3111V15.3111C19 15.9358 18.7487 16.535 18.3014 16.9767C17.8542 17.4185 17.2475 17.6667 16.615 17.6667H3.385C2.75246 17.6667 2.14583 17.4185 1.69855 16.9767C1.25128 16.535 1 15.9358 1 15.3111V15.3111C0.999725 15.0017 1.06118 14.6952 1.18086 14.4092C1.30054 14.1233 1.4761 13.8634 1.6975 13.6444L3.25 12.1111V7.66667C3.25 5.89856 3.96116 4.20286 5.22703 2.95262C6.4929 1.70238 8.20979 1 10 1V1C11.7902 1 13.5071 1.70238 14.773 2.95262C16.0388 4.20286 16.75 5.89856 16.75 7.66667V12.1111L18.3025 13.6444ZM13.375 17.6667H6.625C6.625 18.5507 6.98058 19.3986 7.61351 20.0237C8.24645 20.6488 9.10489 21 10 21C10.8951 21 11.7536 20.6488 12.3865 20.0237C13.0194 19.3986 13.375 18.5507 13.375 17.6667Z" stroke="#222222" stroke-width="2" stroke-linecap="round" stroke-linejoin="round"/>
</svg>
