<svg width="18" height="15" viewBox="0 0 18 15" fill="none" xmlns="http://www.w3.org/2000/svg">
<path d="M1 12V6.25C1 5.14543 1.89543 4.25 3 4.25H3.65377C4.32753 4.25 4.95602 3.91076 5.32574 3.3475L6.27426 1.9025C6.64398 1.33924 7.27247 1 7.94623 1H9.88872C10.6507 1 11.3465 1.43299 11.6831 2.11663L12.1836 3.13337C12.5202 3.81701 13.216 4.25 13.9779 4.25H15C16.1046 4.25 17 5.14543 17 6.25V12C17 13.1046 16.1046 14 15 14H3C1.89543 14 1 13.1046 1 12Z" stroke="#222222" stroke-width="1.5"/>
<circle cx="9" cy="8.5" r="2.5" stroke="#222222" stroke-width="1.5"/>
</svg>
