<svg width="16" height="16" viewBox="0 0 16 16" fill="none" xmlns="http://www.w3.org/2000/svg">
<path d="M1.99892 11.6058L2.74434 11.6886L2.77237 11.4364L2.64143 11.2189L1.99892 11.6058ZM1.77895 13.5855L1.03354 13.5027H1.03354L1.77895 13.5855ZM2.39716 14.1258L2.57906 14.8534H2.57907L2.39716 14.1258ZM3.97875 13.7304L4.41009 13.1169L4.12954 12.9196L3.79684 13.0028L3.97875 13.7304ZM14.25 8C14.25 11.4518 11.4518 14.25 8 14.25V15.75C12.2802 15.75 15.75 12.2802 15.75 8H14.25ZM8 1.75C11.4518 1.75 14.25 4.54822 14.25 8H15.75C15.75 3.71979 12.2802 0.25 8 0.25V1.75ZM1.75 8C1.75 4.54822 4.54822 1.75 8 1.75V0.25C3.71979 0.25 0.25 3.71979 0.25 8H1.75ZM2.64143 11.2189C2.07563 10.2793 1.75 9.17881 1.75 8H0.25C0.25 9.45903 0.653903 10.826 1.35642 11.9927L2.64143 11.2189ZM2.52437 13.6684L2.74434 11.6886L1.25351 11.523L1.03354 13.5027L2.52437 13.6684ZM2.21526 13.3982C2.38428 13.356 2.54361 13.4952 2.52437 13.6684L1.03354 13.5027C0.937345 14.3685 1.73398 15.0647 2.57906 14.8534L2.21526 13.3982ZM3.79684 13.0028L2.21526 13.3982L2.57907 14.8534L4.16065 14.458L3.79684 13.0028ZM8 14.25C6.66281 14.25 5.42574 13.8309 4.41009 13.1169L3.5474 14.344C4.80742 15.2298 6.34408 15.75 8 15.75V14.25Z" fill="#222222"/>
<circle cx="5.02417" cy="8.17554" r="0.875" fill="#222222"/>
<circle cx="7.82446" cy="8.17554" r="0.875" fill="#222222"/>
<circle cx="10.625" cy="8.17554" r="0.875" fill="#222222"/>
</svg>
