<svg width="24" height="24" viewBox="0 0 24 24" fill="none" xmlns="http://www.w3.org/2000/svg">
<path d="M13.2824 5.28206C13.2828 5.62244 13.1479 5.94903 12.9075 6.18997C12.6671 6.43091 12.3408 6.56647 12.0004 6.56683C11.66 6.56719 11.3334 6.43232 11.0925 6.19189C10.8515 5.95146 10.716 5.62516 10.7156 5.28478C10.7153 4.94439 10.8501 4.61781 11.0906 4.37687C11.331 4.13592 11.6573 4.00036 11.9977 4C12.3381 3.99964 12.6646 4.13451 12.9056 4.37494C13.1465 4.61538 13.2821 4.94168 13.2824 5.28206ZM23.5443 7.85025C23.5445 8.19063 23.4095 8.51715 23.1689 8.75796C22.9284 8.99878 22.602 9.13416 22.2616 9.13434C21.9212 9.13452 21.5947 8.99948 21.3539 8.75892C21.1131 8.51836 20.9777 8.19199 20.9775 7.85161C20.9775 7.51122 21.1127 7.18478 21.3534 6.94409C21.5941 6.70341 21.9205 6.56819 22.2609 6.56819C22.6013 6.56819 22.9277 6.70341 23.1684 6.94409C23.4091 7.18478 23.5443 7.50987 23.5443 7.85025ZM3.02191 7.85025C3.022 8.01879 2.98889 8.1857 2.92448 8.34144C2.86006 8.49719 2.7656 8.63872 2.64649 8.75796C2.52737 8.8772 2.38594 8.97181 2.23026 9.03639C2.07459 9.10097 1.90771 9.13425 1.73917 9.13434C1.57063 9.13443 1.40372 9.10132 1.24798 9.03691C1.09223 8.97249 0.950701 8.87803 0.831462 8.75892C0.712223 8.63981 0.617612 8.49837 0.553032 8.3427C0.488452 8.18702 0.455167 8.02015 0.455078 7.85161C0.455078 7.51122 0.590295 7.18478 0.830982 6.94409C1.07167 6.70341 1.39811 6.56819 1.73849 6.56819C2.07888 6.56819 2.40532 6.70341 2.64601 6.94409C2.88669 7.18478 3.02191 7.50987 3.02191 7.85025Z" fill="#FF7D3C"/>
<path fill-rule="evenodd" clip-rule="evenodd" d="M12.0003 8.00041C12.2367 8.00065 12.4693 8.06003 12.6777 8.17331C12.8866 8.28682 13.0646 8.45093 13.196 8.65109L15.2937 11.8517C15.5027 12.1699 15.8262 12.3923 16.1947 12.471C16.5632 12.5497 16.9475 12.4784 17.2649 12.2726L20.4504 10.2119C21.5539 9.49875 22.9467 10.5305 22.6158 11.8166L20.4345 20.2435C20.3538 20.5558 20.1735 20.8322 19.9218 21.0294C19.6701 21.2267 19.3611 21.3337 19.0432 21.3337H4.95452C4.63662 21.3337 4.32768 21.2267 4.07597 21.0294C3.82426 20.8322 3.64395 20.5558 3.5632 20.2435L1.38199 11.8166C1.04962 10.5305 2.44382 9.49729 3.54738 10.2119L6.73288 12.2741C7.05047 12.4798 7.43482 12.5508 7.80337 12.4718C8.17192 12.3928 8.49529 12.1702 8.70403 11.8517L10.8018 8.65109C10.9332 8.45093 11.1112 8.28682 11.32 8.17331C11.5288 8.0598 11.762 8.00041 11.9989 8.00041C11.9991 8.00041 11.9994 8.00041 11.9997 8.00041L12 7.99992L12.0003 8.00041Z" fill="#FF7D3C"/>
</svg>
