<svg width="26" height="26" viewBox="0 0 26 26" fill="none" xmlns="http://www.w3.org/2000/svg">
<path d="M6 4C6 3.44772 6.44772 3 7 3H22C22.412 3 22.6472 3.47038 22.4 3.8L18.95 8.4C18.6833 8.75556 18.6833 9.24444 18.95 9.6L22.4 14.2C22.6472 14.5296 22.412 15 22 15H6V4Z" fill="#555555"/>
<path d="M6 15H22C22.412 15 22.6472 14.5296 22.4 14.2L18.95 9.6C18.6833 9.24444 18.6833 8.75556 18.95 8.4L22.4 3.8C22.6472 3.47038 22.412 3 22 3H7C6.44772 3 6 3.44772 6 4V15ZM6 15V24" stroke="#555555" stroke-width="2" stroke-linecap="round" stroke-linejoin="round"/>
</svg>
