<svg width="26" height="26" viewBox="0 0 26 26" fill="none" xmlns="http://www.w3.org/2000/svg">
<path d="M4.83838 9.70143L12.3384 3.08378C12.7164 2.75023 13.2836 2.75023 13.6616 3.08378L21.1616 9.70143C21.3768 9.89126 21.5 10.1644 21.5 10.4513V21.5C21.5 22.0523 21.0523 22.5 20.5 22.5H16.25C15.6977 22.5 15.25 22.0523 15.25 21.5V19C15.25 18.4477 14.8023 18 14.25 18H11.75C11.1977 18 10.75 18.4477 10.75 19V21.5C10.75 22.0523 10.3023 22.5 9.75 22.5H5.5C4.94772 22.5 4.5 22.0523 4.5 21.5V10.4513C4.5 10.1644 4.62324 9.89126 4.83838 9.70143Z" fill="#555555"/>
</svg>
