<svg width="22" height="33" viewBox="0 0 22 33" fill="none" xmlns="http://www.w3.org/2000/svg">
<path fill-rule="evenodd" clip-rule="evenodd" d="M15 22.6162C15 21.7924 15.5142 21.0679 16.2383 20.675C19.67 18.8131 22 15.1787 22 11C22 4.92487 17.0751 0 11 0C4.92487 0 0 4.92487 0 11C0 15.1787 2.33 18.8131 5.76168 20.675C6.48576 21.0679 7 21.7924 7 22.6162V30C7 31.1046 7.89543 32 9 32H13C14.1046 32 15 31.1046 15 30V22.6162Z" fill="url(#paint0_linear_1266_15471)"/>
<path fill-rule="evenodd" clip-rule="evenodd" d="M6.99999 31C5.89542 31 5 30.1046 5 29V25C5 23.8954 5.89543 23 7 23H15C16.1046 23 17 23.8954 17 25V29C17 30.1046 16.1046 31 15 31C15 31 15 31 15 31C15 31 15 31 15 31C15 32.1046 14.1046 33 13 33L11 33L8.99999 33C7.89543 33 7.00001 32.1046 7 31C7 31 7 31 6.99999 31Z" fill="#FFCF00"/>
<defs>
<linearGradient id="paint0_linear_1266_15471" x1="14.2083" y1="1.51369e-07" x2="8.92745" y2="22.2987" gradientUnits="userSpaceOnUse">
<stop stop-color="#FF6B00"/>
<stop offset="1" stop-color="#FF8A36"/>
</linearGradient>
</defs>
</svg>
