<svg width="26" height="26" viewBox="0 0 26 26" fill="none" xmlns="http://www.w3.org/2000/svg">
<mask id="mask0_1218_14441" style="mask-type:alpha" maskUnits="userSpaceOnUse" x="2" y="2" width="22" height="22">
<circle cx="13" cy="13" r="11" fill="#FFF6F0"/>
</mask>
<g mask="url(#mask0_1218_14441)">
<circle cx="13" cy="13" r="11" fill="#555555"/>
<path d="M21.3149 20.5558C21.7672 21.6478 22 22.8181 22 24L4 24C4 22.8181 4.23279 21.6478 4.68508 20.5558C5.13738 19.4639 5.80031 18.4718 6.63604 17.636C7.47177 16.8003 8.46392 16.1374 9.55585 15.6851C10.6478 15.2328 11.8181 15 13 15C14.1819 15 15.3522 15.2328 16.4442 15.6851C17.5361 16.1374 18.5282 16.8003 19.364 17.636C20.1997 18.4718 20.8626 19.4639 21.3149 20.5558Z" fill="white"/>
<circle cx="13" cy="10" r="4" fill="white"/>
<circle cx="13" cy="13" r="10" stroke="#555555" stroke-width="2"/>
</g>
</svg>
