<svg width="358" height="50" viewBox="0 0 358 50" fill="none" xmlns="http://www.w3.org/2000/svg">
<mask id="mask0_1476_15568" style="mask-type:alpha" maskUnits="userSpaceOnUse" x="0" y="0" width="358" height="50">
<path d="M0 8C0 3.58172 3.58172 0 8 0H350C354.418 0 358 3.58172 358 8V42C358 46.4183 354.418 50 350 50H8C3.58173 50 0 46.4183 0 42V8Z" fill="url(#paint0_linear_1476_15568)"/>
</mask>
<g mask="url(#mask0_1476_15568)">
<path d="M0 8C0 3.58172 3.58172 0 8 0H350C354.418 0 358 3.58172 358 8V42C358 46.4183 354.418 50 350 50H8C3.58173 50 0 46.4183 0 42V8Z" fill="url(#paint1_linear_1476_15568)"/>
<path d="M310.631 13.9569C311.307 12.2889 313.372 8.21773 316.221 5.27705" stroke="#FF7D3C" stroke-width="4.27955" stroke-linecap="round"/>
<path d="M309.058 16.2007C308.792 14.4206 308.498 9.86523 309.454 5.88392" stroke="#FF7D3C" stroke-width="4.27955" stroke-linecap="round"/>
<path d="M310.381 14.6311C311.854 13.5975 315.799 11.2996 319.788 10.3768" stroke="#FF7D3C" stroke-width="4.27955" stroke-linecap="round"/>
<circle cx="293.407" cy="78.5624" r="69.7314" fill="#FF7D3C"/>
<path fill-rule="evenodd" clip-rule="evenodd" d="M283.074 129.228C318.666 129.228 347.519 100.375 347.519 64.7829C347.519 45.7703 339.285 28.6808 326.19 16.8849C348.238 28.5983 363.252 51.7988 363.252 78.506C363.252 117.018 332.033 148.237 293.521 148.237C260.208 148.237 232.352 124.878 225.438 93.6452C236.025 114.746 257.858 129.228 283.074 129.228Z" fill="#EA6C2D"/>
<ellipse cx="265.299" cy="29.0011" rx="7.81212" ry="14.4669" transform="rotate(26.8216 265.299 29.0011)" fill="white"/>
<path fill-rule="evenodd" clip-rule="evenodd" d="M258.958 24.3032C261.52 19.8024 265.038 16.6674 268.164 15.8357C270.237 17.0653 270.2 21.4019 268.048 25.6594C265.848 30.0089 262.274 32.6288 260.063 31.5113C258.312 30.6258 257.943 27.6601 258.958 24.3032Z" fill="#5E402B"/>
<ellipse cx="292.686" cy="33.5526" rx="7.81212" ry="14.4669" transform="rotate(26.8216 292.686 33.5526)" fill="white"/>
<path fill-rule="evenodd" clip-rule="evenodd" d="M286.341 28.8546C288.902 24.3539 292.421 21.2189 295.547 20.3872C297.62 21.6167 297.583 25.9533 295.43 30.2109C293.231 34.5603 289.657 37.1803 287.446 36.0627C285.695 35.1773 285.325 32.2115 286.341 28.8546Z" fill="#5E402B"/>
<path d="M269.224 9.88658C272.817 7.59197 277.118 9.68484 277.443 13.7934" stroke="#5E402B" stroke-width="2.26564" stroke-linecap="round"/>
<path d="M304.536 18.5716C304.254 14.3177 300.018 12.0946 296.517 14.2688" stroke="#5E402B" stroke-width="2.26564" stroke-linecap="round"/>
<path d="M276.913 53.8859C272.612 58.4345 265.295 56.6306 263.698 50.8745" stroke="#5E402B" stroke-width="2.26564" stroke-linecap="round"/>
<path d="M17.778 30.9038C17.5167 30.9038 17.302 30.8758 17.134 30.8198C16.966 30.7638 16.8353 30.6891 16.742 30.5958C16.6487 30.5118 16.5833 30.4091 16.546 30.2878C16.518 30.1758 16.504 30.0638 16.504 29.9518C16.504 29.8118 16.518 29.6811 16.546 29.5598C16.5833 29.4478 16.6487 29.3451 16.742 29.2518C16.8353 29.1678 16.966 29.0978 17.134 29.0418C17.302 28.9951 17.5167 28.9718 17.778 28.9718H21.516V26.0038H18.646C18.3847 26.0038 18.1793 25.9758 18.03 25.9198C17.8807 25.8638 17.764 25.7891 17.68 25.6958C17.6053 25.5931 17.5587 25.4811 17.54 25.3598C17.5213 25.2291 17.512 25.0938 17.512 24.9538V20.4178C17.512 19.9511 17.624 19.6338 17.848 19.4658C18.0813 19.2884 18.3473 19.1998 18.646 19.1998H26.584C26.8173 19.1998 27.004 19.2278 27.144 19.2838C27.284 19.3398 27.3913 19.4144 27.466 19.5078C27.5407 19.6011 27.5873 19.7084 27.606 19.8298C27.634 19.9418 27.648 20.0584 27.648 20.1798C27.648 20.2824 27.634 20.3898 27.606 20.5018C27.5873 20.6138 27.5407 20.7164 27.466 20.8098C27.3913 20.9031 27.284 20.9824 27.144 21.0478C27.004 21.1131 26.8173 21.1458 26.584 21.1458H19.78V24.0578H26.724C26.9573 24.0578 27.144 24.0904 27.284 24.1558C27.424 24.2211 27.5313 24.3004 27.606 24.3938C27.6807 24.4871 27.7273 24.5944 27.746 24.7158C27.774 24.8278 27.788 24.9304 27.788 25.0238C27.788 25.1451 27.774 25.2664 27.746 25.3878C27.7273 25.4998 27.6807 25.6024 27.606 25.6958C27.5313 25.7891 27.424 25.8638 27.284 25.9198C27.144 25.9758 26.9573 26.0038 26.724 26.0038H23.784V28.9718H27.508C27.7693 28.9718 27.984 28.9951 28.152 29.0418C28.32 29.0978 28.4507 29.1678 28.544 29.2518C28.6373 29.3451 28.698 29.4478 28.726 29.5598C28.7633 29.6811 28.782 29.8118 28.782 29.9518C28.782 30.0638 28.7633 30.1758 28.726 30.2878C28.698 30.4091 28.6373 30.5118 28.544 30.5958C28.4507 30.6891 28.32 30.7638 28.152 30.8198C27.984 30.8758 27.7693 30.9038 27.508 30.9038H17.778ZM31.5707 31.2118C31.3094 31.2118 31.1041 31.1884 30.9547 31.1418C30.8054 31.0951 30.6887 31.0298 30.6047 30.9458C30.5301 30.8711 30.4834 30.7778 30.4647 30.6658C30.4461 30.5538 30.4367 30.4278 30.4367 30.2878V28.1878C30.4367 28.0944 30.4461 28.0011 30.4647 27.9078C30.4927 27.8144 30.5441 27.7304 30.6187 27.6558C30.6934 27.5811 30.8007 27.5251 30.9407 27.4878C31.0807 27.4411 31.2674 27.4178 31.5007 27.4178H38.2067V26.8438H31.4587C31.2254 26.8438 31.0387 26.8251 30.8987 26.7878C30.7587 26.7504 30.6514 26.6991 30.5767 26.6338C30.5021 26.5591 30.4507 26.4751 30.4227 26.3818C30.4041 26.2791 30.3947 26.1671 30.3947 26.0458C30.3947 25.9524 30.4041 25.8544 30.4227 25.7518C30.4507 25.6491 30.5021 25.5604 30.5767 25.4858C30.6514 25.4111 30.7587 25.3504 30.8987 25.3038C31.0387 25.2478 31.2254 25.2198 31.4587 25.2198H39.4107C39.6347 25.2198 39.8167 25.2478 39.9567 25.3038C40.0967 25.3504 40.2041 25.4111 40.2787 25.4858C40.3627 25.5604 40.4141 25.6491 40.4327 25.7518C40.4607 25.8451 40.4747 25.9384 40.4747 26.0318V28.2158C40.4747 28.3278 40.4607 28.4304 40.4327 28.5238C40.4047 28.6171 40.3487 28.6964 40.2647 28.7618C40.1901 28.8271 40.0827 28.8784 39.9427 28.9158C39.8121 28.9531 39.6347 28.9718 39.4107 28.9718H32.7047V29.5458H39.6627C40.1201 29.5458 40.4234 29.6251 40.5727 29.7838C40.7221 29.9424 40.7967 30.1384 40.7967 30.3718C40.7967 30.6424 40.7221 30.8478 40.5727 30.9878C40.4234 31.1371 40.1201 31.2118 39.6627 31.2118H31.5707ZM31.1507 24.5338C30.8894 24.5338 30.6841 24.5104 30.5347 24.4638C30.3854 24.4078 30.2687 24.3378 30.1847 24.2538C30.1101 24.1604 30.0634 24.0578 30.0447 23.9458C30.0261 23.8244 30.0167 23.6938 30.0167 23.5538V20.3478C30.0167 20.1704 30.0261 20.0118 30.0447 19.8718C30.0634 19.7224 30.1101 19.6011 30.1847 19.5078C30.2687 19.4051 30.3854 19.3304 30.5347 19.2838C30.6841 19.2278 30.8894 19.1998 31.1507 19.1998H34.7487C35.0101 19.1998 35.2247 19.2231 35.3927 19.2698C35.5607 19.3164 35.6914 19.3818 35.7847 19.4658C35.8781 19.5498 35.9387 19.6524 35.9667 19.7738C36.0041 19.8858 36.0227 20.0118 36.0227 20.1518C36.0227 20.2638 36.0041 20.3758 35.9667 20.4878C35.9387 20.5904 35.8781 20.6838 35.7847 20.7678C35.6914 20.8518 35.5607 20.9218 35.3927 20.9778C35.2247 21.0244 35.0101 21.0478 34.7487 21.0478H32.2847V22.6858H35.0287C35.2901 22.6858 35.5047 22.7138 35.6727 22.7698C35.8407 22.8164 35.9714 22.8818 36.0647 22.9658C36.1581 23.0498 36.2187 23.1478 36.2467 23.2598C36.2841 23.3624 36.3027 23.4698 36.3027 23.5818C36.3027 23.7218 36.2841 23.8524 36.2467 23.9738C36.2187 24.0858 36.1581 24.1838 36.0647 24.2678C35.9714 24.3518 35.8407 24.4171 35.6727 24.4638C35.5047 24.5104 35.2901 24.5338 35.0287 24.5338H31.1507ZM39.0187 24.7578C38.8694 24.7578 38.7247 24.7391 38.5847 24.7018C38.4541 24.6644 38.3327 24.5991 38.2207 24.5058C38.1181 24.4124 38.0341 24.2864 37.9687 24.1278C37.9127 23.9691 37.8847 23.7684 37.8847 23.5258V20.2778C37.8847 19.8111 37.9967 19.4938 38.2207 19.3258C38.4541 19.1484 38.7201 19.0598 39.0187 19.0598C39.1681 19.0598 39.3081 19.0784 39.4387 19.1158C39.5787 19.1531 39.7001 19.2184 39.8027 19.3118C39.9054 19.4051 39.9894 19.5311 40.0547 19.6898C40.1201 19.8484 40.1527 20.0444 40.1527 20.2778V20.8798H41.3147C41.5761 20.8798 41.7907 20.9124 41.9587 20.9778C42.1267 21.0338 42.2574 21.1084 42.3507 21.2018C42.4441 21.2951 42.5047 21.4024 42.5327 21.5238C42.5701 21.6358 42.5887 21.7478 42.5887 21.8598C42.5887 21.9998 42.5701 22.1304 42.5327 22.2518C42.5047 22.3731 42.4441 22.4804 42.3507 22.5738C42.2574 22.6578 42.1267 22.7278 41.9587 22.7838C41.7907 22.8398 41.5761 22.8678 41.3147 22.8678H40.1527V23.5258C40.1527 23.7684 40.1201 23.9691 40.0547 24.1278C39.9894 24.2864 39.9054 24.4124 39.8027 24.5058C39.7001 24.5991 39.5787 24.6644 39.4387 24.7018C39.3081 24.7391 39.1681 24.7578 39.0187 24.7578ZM50.9915 31.0718C50.8608 31.0718 50.7348 31.0531 50.6135 31.0158C50.4921 30.9784 50.3848 30.9131 50.2915 30.8198C50.2075 30.7264 50.1375 30.6004 50.0815 30.4418C50.0255 30.2831 49.9975 30.0824 49.9975 29.8398V25.4298H48.5275V27.1658C48.5275 27.4084 48.5228 27.6138 48.5135 27.7818C48.5135 27.9498 48.5135 28.0618 48.5135 28.1178C48.5041 28.5844 48.4528 28.9904 48.3595 29.3358C48.2661 29.6811 48.1121 29.9658 47.8975 30.1898C47.6921 30.4138 47.4215 30.5818 47.0855 30.6938C46.7495 30.8058 46.3341 30.8618 45.8395 30.8618C45.3355 30.8618 44.9155 30.8058 44.5795 30.6938C44.2528 30.5818 43.9868 30.4091 43.7815 30.1758C43.5855 29.9518 43.4408 29.6671 43.3475 29.3218C43.2541 28.9764 43.1935 28.5751 43.1655 28.1178C43.1561 28.0338 43.1515 27.8378 43.1515 27.5298C43.1515 27.2124 43.1468 26.8391 43.1375 26.4098C43.1375 25.9804 43.1375 25.5231 43.1375 25.0378C43.1375 24.5524 43.1375 24.0951 43.1375 23.6658C43.1468 23.2364 43.1515 22.8678 43.1515 22.5598C43.1515 22.2518 43.1561 22.0558 43.1655 21.9718C43.1935 21.5051 43.2495 21.0991 43.3335 20.7538C43.4268 20.3991 43.5715 20.1051 43.7675 19.8718C43.9728 19.6384 44.2388 19.4658 44.5655 19.3538C44.9015 19.2324 45.3261 19.1718 45.8395 19.1718C46.3248 19.1718 46.7308 19.2324 47.0575 19.3538C47.3841 19.4658 47.6501 19.6431 47.8555 19.8858C48.0608 20.1191 48.2148 20.4131 48.3175 20.7678C48.4201 21.1131 48.4855 21.5144 48.5135 21.9718C48.5135 22.0464 48.5135 22.2238 48.5135 22.5038C48.5228 22.7744 48.5275 23.1058 48.5275 23.4978H49.9975V20.2778C49.9975 19.8111 50.0955 19.4938 50.2915 19.3258C50.4968 19.1484 50.7301 19.0598 50.9915 19.0598C51.2435 19.0598 51.4675 19.1484 51.6635 19.3258C51.8688 19.4938 51.9715 19.8111 51.9715 20.2778V29.8398C51.9715 30.0824 51.9435 30.2831 51.8875 30.4418C51.8315 30.6004 51.7568 30.7264 51.6635 30.8198C51.5795 30.9131 51.4768 30.9784 51.3555 31.0158C51.2341 31.0531 51.1128 31.0718 50.9915 31.0718ZM45.8395 29.0558C45.9141 29.0558 45.9841 29.0464 46.0495 29.0278C46.1148 29.0184 46.1708 28.9811 46.2175 28.9158C46.2641 28.8504 46.3015 28.7618 46.3295 28.6498C46.3668 28.5284 46.3901 28.3604 46.3995 28.1458C46.4088 28.0524 46.4135 27.8471 46.4135 27.5298V23.6098C46.4135 23.1711 46.4088 22.7978 46.3995 22.4898C46.3995 22.1724 46.3995 21.9718 46.3995 21.8878C46.3901 21.6918 46.3715 21.5331 46.3435 21.4118C46.3155 21.2904 46.2735 21.2018 46.2175 21.1458C46.1708 21.0804 46.1148 21.0384 46.0495 21.0198C45.9841 21.0011 45.9141 20.9918 45.8395 20.9918C45.7648 20.9918 45.6948 21.0058 45.6295 21.0338C45.5641 21.0524 45.5081 21.0944 45.4615 21.1598C45.4148 21.2251 45.3728 21.3231 45.3355 21.4538C45.3075 21.5751 45.2888 21.7338 45.2795 21.9298C45.2701 22.0138 45.2655 22.2191 45.2655 22.5458C45.2655 22.8631 45.2608 23.2411 45.2515 23.6798C45.2515 24.1091 45.2515 24.5711 45.2515 25.0658C45.2608 25.5511 45.2655 26.0084 45.2655 26.4378C45.2655 26.8671 45.2655 27.2404 45.2655 27.5578C45.2655 27.8751 45.2701 28.0711 45.2795 28.1458C45.2795 28.3604 45.2935 28.5284 45.3215 28.6498C45.3495 28.7618 45.3868 28.8504 45.4335 28.9158C45.4801 28.9811 45.5361 29.0184 45.6015 29.0278C45.6761 29.0464 45.7555 29.0558 45.8395 29.0558ZM53.9875 31.0718C53.8568 31.0718 53.7308 31.0531 53.6095 31.0158C53.4881 30.9784 53.3808 30.9131 53.2875 30.8198C53.2035 30.7264 53.1335 30.6004 53.0775 30.4418C53.0215 30.2831 52.9935 30.0824 52.9935 29.8398V20.2778C52.9935 19.8111 53.0915 19.4938 53.2875 19.3258C53.4928 19.1484 53.7261 19.0598 53.9875 19.0598C54.2395 19.0598 54.4635 19.1484 54.6595 19.3258C54.8648 19.4938 54.9675 19.8111 54.9675 20.2778V29.8398C54.9675 30.0824 54.9395 30.2831 54.8835 30.4418C54.8275 30.6004 54.7528 30.7264 54.6595 30.8198C54.5755 30.9131 54.4728 30.9784 54.3515 31.0158C54.2301 31.0531 54.1088 31.0718 53.9875 31.0718ZM67.5535 31.0718C67.4228 31.0718 67.2968 31.0531 67.1755 31.0158C67.0541 30.9784 66.9468 30.9131 66.8535 30.8198C66.7695 30.7264 66.6995 30.6004 66.6435 30.4418C66.5875 30.2831 66.5595 30.0824 66.5595 29.8398V20.2778C66.5595 19.8111 66.6575 19.4938 66.8535 19.3258C67.0588 19.1484 67.2921 19.0598 67.5535 19.0598C67.8055 19.0598 68.0295 19.1484 68.2255 19.3258C68.4308 19.4938 68.5335 19.8111 68.5335 20.2778V23.6938H69.8495V20.2778C69.8495 19.8111 69.9475 19.4938 70.1435 19.3258C70.3488 19.1484 70.5821 19.0598 70.8435 19.0598C71.0955 19.0598 71.3195 19.1484 71.5155 19.3258C71.7208 19.4938 71.8235 19.8111 71.8235 20.2778V29.8398C71.8235 30.0824 71.7955 30.2831 71.7395 30.4418C71.6835 30.6004 71.6088 30.7264 71.5155 30.8198C71.4315 30.9131 71.3288 30.9784 71.2075 31.0158C71.0861 31.0531 70.9648 31.0718 70.8435 31.0718C70.7128 31.0718 70.5868 31.0531 70.4655 31.0158C70.3441 30.9784 70.2368 30.9131 70.1435 30.8198C70.0595 30.7264 69.9895 30.6004 69.9335 30.4418C69.8775 30.2831 69.8495 30.0824 69.8495 29.8398V25.6258H68.5335V29.8398C68.5335 30.0824 68.5055 30.2831 68.4495 30.4418C68.3935 30.6004 68.3188 30.7264 68.2255 30.8198C68.1415 30.9131 68.0388 30.9784 67.9175 31.0158C67.7961 31.0531 67.6748 31.0718 67.5535 31.0718ZM61.7855 30.7218C61.5241 30.7218 61.3188 30.6938 61.1695 30.6378C61.0201 30.5911 60.9035 30.5211 60.8195 30.4278C60.7448 30.3438 60.6981 30.2411 60.6795 30.1198C60.6608 30.0078 60.6515 29.8818 60.6515 29.7418V20.2078C60.6515 20.0678 60.6608 19.9418 60.6795 19.8298C60.6981 19.7084 60.7448 19.6058 60.8195 19.5218C60.9035 19.4284 61.0201 19.3584 61.1695 19.3118C61.3188 19.2558 61.5241 19.2278 61.7855 19.2278H64.1235C64.3848 19.2278 64.5995 19.2558 64.7675 19.3118C64.9355 19.3584 65.0661 19.4284 65.1595 19.5218C65.2528 19.6058 65.3135 19.7084 65.3415 19.8298C65.3788 19.9418 65.3975 20.0678 65.3975 20.2078C65.3975 20.3198 65.3788 20.4364 65.3415 20.5578C65.3135 20.6698 65.2528 20.7724 65.1595 20.8658C65.0661 20.9498 64.9355 21.0198 64.7675 21.0758C64.5995 21.1318 64.3848 21.1598 64.1235 21.1598H62.7795V28.7898H64.4035C64.6648 28.7898 64.8795 28.8178 65.0475 28.8738C65.2155 28.9298 65.3461 28.9998 65.4395 29.0838C65.5328 29.1771 65.5935 29.2798 65.6215 29.3918C65.6588 29.5131 65.6775 29.6298 65.6775 29.7418C65.6775 29.8818 65.6588 30.0078 65.6215 30.1198C65.5935 30.2411 65.5328 30.3438 65.4395 30.4278C65.3461 30.5211 65.2155 30.5911 65.0475 30.6378C64.8795 30.6938 64.6648 30.7218 64.4035 30.7218H61.7855ZM81.3882 31.0718C81.2575 31.0718 81.1315 31.0531 81.0102 31.0158C80.8889 30.9784 80.7815 30.9131 80.6882 30.8198C80.6042 30.7264 80.5342 30.6004 80.4782 30.4418C80.4222 30.2831 80.3942 30.0824 80.3942 29.8398V20.2778C80.3942 19.8111 80.4922 19.4938 80.6882 19.3258C80.8935 19.1484 81.1269 19.0598 81.3882 19.0598C81.6402 19.0598 81.8642 19.1484 82.0602 19.3258C82.2655 19.4938 82.3682 19.8111 82.3682 20.2778V23.9038H83.3482V20.2778C83.3482 19.8111 83.4462 19.4938 83.6422 19.3258C83.8475 19.1484 84.0809 19.0598 84.3422 19.0598C84.5942 19.0598 84.8182 19.1484 85.0142 19.3258C85.2195 19.4938 85.3222 19.8111 85.3222 20.2778V29.8398C85.3222 30.0824 85.2942 30.2831 85.2382 30.4418C85.1822 30.6004 85.1075 30.7264 85.0142 30.8198C84.9302 30.9131 84.8275 30.9784 84.7062 31.0158C84.5849 31.0531 84.4635 31.0718 84.3422 31.0718C84.2115 31.0718 84.0855 31.0531 83.9642 31.0158C83.8429 30.9784 83.7355 30.9131 83.6422 30.8198C83.5582 30.7264 83.4882 30.6004 83.4322 30.4418C83.3762 30.2831 83.3482 30.0824 83.3482 29.8398V25.8358H82.3682V29.8398C82.3682 30.0824 82.3402 30.2831 82.2842 30.4418C82.2282 30.6004 82.1535 30.7264 82.0602 30.8198C81.9762 30.9131 81.8735 30.9784 81.7522 31.0158C81.6309 31.0531 81.5095 31.0718 81.3882 31.0718ZM76.5442 31.0158C76.0029 31.0158 75.5642 30.9551 75.2282 30.8338C74.8922 30.7124 74.6262 30.5304 74.4302 30.2878C74.2435 30.0544 74.1129 29.7604 74.0382 29.4058C73.9729 29.0604 73.9402 28.6591 73.9402 28.2018V26.7878C73.9402 26.3211 73.9729 25.9104 74.0382 25.5558C74.1035 25.2011 74.2295 24.9024 74.4162 24.6598C74.6122 24.4171 74.8782 24.2351 75.2142 24.1138C75.5502 23.9831 75.9935 23.9178 76.5442 23.9178C77.0575 23.9178 77.4822 23.9831 77.8182 24.1138C78.1635 24.2351 78.4342 24.4171 78.6302 24.6598C78.8262 24.9024 78.9615 25.2058 79.0362 25.5698C79.1202 25.9244 79.1622 26.3304 79.1622 26.7878V28.2018C79.1622 28.6684 79.1249 29.0791 79.0502 29.4338C78.9755 29.7884 78.8402 30.0824 78.6442 30.3158C78.4482 30.5491 78.1822 30.7218 77.8462 30.8338C77.5102 30.9551 77.0762 31.0158 76.5442 31.0158ZM76.5442 29.1538C76.6189 29.1538 76.6842 29.1444 76.7402 29.1258C76.8055 29.1164 76.8615 29.0791 76.9082 29.0138C76.9549 28.9484 76.9922 28.8598 77.0202 28.7478C77.0482 28.6264 77.0669 28.4584 77.0762 28.2438V26.6898C77.0762 26.4938 77.0622 26.3351 77.0342 26.2138C77.0062 26.0924 76.9689 26.0038 76.9222 25.9478C76.8755 25.8824 76.8195 25.8404 76.7542 25.8218C76.6889 25.8031 76.6189 25.7938 76.5442 25.7938C76.3855 25.7938 76.2595 25.8498 76.1662 25.9618C76.0729 26.0738 76.0262 26.3304 76.0262 26.7318V28.2438C76.0262 28.4584 76.0355 28.6264 76.0542 28.7478C76.0822 28.8598 76.1149 28.9484 76.1522 29.0138C76.1989 29.0791 76.2549 29.1164 76.3202 29.1258C76.3855 29.1444 76.4602 29.1538 76.5442 29.1538ZM74.5002 23.3438C74.2389 23.3438 74.0242 23.3204 73.8562 23.2738C73.6882 23.2178 73.5575 23.1478 73.4642 23.0638C73.3709 22.9798 73.3055 22.8818 73.2682 22.7698C73.2402 22.6578 73.2262 22.5458 73.2262 22.4338C73.2262 22.2938 73.2402 22.1678 73.2682 22.0558C73.3055 21.9438 73.3709 21.8458 73.4642 21.7618C73.5575 21.6778 73.6882 21.6124 73.8562 21.5658C74.0242 21.5191 74.2389 21.4958 74.5002 21.4958H78.3922C78.6535 21.4958 78.8682 21.5191 79.0362 21.5658C79.2042 21.6124 79.3349 21.6778 79.4282 21.7618C79.5215 21.8458 79.5822 21.9438 79.6102 22.0558C79.6475 22.1678 79.6662 22.2938 79.6662 22.4338C79.6662 22.5458 79.6475 22.6578 79.6102 22.7698C79.5822 22.8818 79.5215 22.9798 79.4282 23.0638C79.3349 23.1478 79.2042 23.2178 79.0362 23.2738C78.8682 23.3204 78.6535 23.3438 78.3922 23.3438H74.5002ZM75.3822 20.7538C75.1209 20.7538 74.9062 20.7304 74.7382 20.6838C74.5702 20.6278 74.4395 20.5578 74.3462 20.4738C74.2529 20.3898 74.1875 20.2918 74.1502 20.1798C74.1222 20.0678 74.1082 19.9558 74.1082 19.8438C74.1082 19.7038 74.1222 19.5778 74.1502 19.4658C74.1875 19.3538 74.2529 19.2558 74.3462 19.1718C74.4395 19.0878 74.5702 19.0224 74.7382 18.9758C74.9062 18.9291 75.1209 18.9058 75.3822 18.9058H77.5102C77.7715 18.9058 77.9862 18.9291 78.1542 18.9758C78.3222 19.0224 78.4529 19.0878 78.5462 19.1718C78.6395 19.2558 78.7002 19.3538 78.7282 19.4658C78.7655 19.5778 78.7842 19.7038 78.7842 19.8438C78.7842 19.9558 78.7655 20.0678 78.7282 20.1798C78.7002 20.2918 78.6395 20.3898 78.5462 20.4738C78.4529 20.5578 78.3222 20.6278 78.1542 20.6838C77.9862 20.7304 77.7715 20.7538 77.5102 20.7538H75.3822ZM92.1542 30.6798C91.8929 30.6798 91.6782 30.6518 91.5102 30.5958C91.3422 30.5491 91.2115 30.4791 91.1182 30.3858C91.0249 30.3018 90.9595 30.1991 90.9222 30.0778C90.8942 29.9658 90.8802 29.8398 90.8802 29.6998C90.8802 29.5878 90.8942 29.4758 90.9222 29.3638C90.9595 29.2611 91.0202 29.1631 91.1042 29.0698C91.1882 28.9858 91.3049 28.9158 91.4542 28.8598C91.6035 28.7944 91.7949 28.7571 92.0282 28.7478V21.1598C91.5522 21.1411 91.2395 21.0431 91.0902 20.8658C90.9502 20.6791 90.8802 20.4504 90.8802 20.1798C90.8802 20.0678 90.8942 19.9558 90.9222 19.8438C90.9595 19.7224 91.0249 19.6198 91.1182 19.5358C91.2115 19.4424 91.3422 19.3678 91.5102 19.3118C91.6782 19.2558 91.8929 19.2278 92.1542 19.2278H97.3342C97.5955 19.2278 97.8102 19.2558 97.9782 19.3118C98.1462 19.3678 98.2769 19.4424 98.3702 19.5358C98.4635 19.6198 98.5242 19.7224 98.5522 19.8438C98.5895 19.9558 98.6082 20.0678 98.6082 20.1798C98.6082 20.3104 98.5895 20.4364 98.5522 20.5578C98.5242 20.6698 98.4682 20.7724 98.3842 20.8658C98.3002 20.9498 98.1835 21.0198 98.0342 21.0758C97.8849 21.1224 97.6935 21.1504 97.4602 21.1598V28.7478C97.6935 28.7571 97.8849 28.7944 98.0342 28.8598C98.1835 28.9158 98.3002 28.9858 98.3842 29.0698C98.4682 29.1631 98.5242 29.2611 98.5522 29.3638C98.5895 29.4758 98.6082 29.5878 98.6082 29.6998C98.6082 29.8398 98.5895 29.9658 98.5522 30.0778C98.5242 30.1991 98.4635 30.3018 98.3702 30.3858C98.2769 30.4791 98.1462 30.5491 97.9782 30.5958C97.8102 30.6518 97.5955 30.6798 97.3342 30.6798H92.1542ZM95.2902 28.7478V21.1598H94.1982V28.7478H95.2902ZM101.366 31.0718C101.217 31.0718 101.072 31.0531 100.932 31.0158C100.802 30.9784 100.68 30.9131 100.568 30.8198C100.466 30.7264 100.382 30.6004 100.316 30.4418C100.26 30.2831 100.232 30.0824 100.232 29.8398V20.2778C100.232 19.8111 100.344 19.4938 100.568 19.3258C100.802 19.1484 101.068 19.0598 101.366 19.0598C101.516 19.0598 101.656 19.0784 101.786 19.1158C101.926 19.1531 102.048 19.2184 102.15 19.3118C102.253 19.4051 102.337 19.5311 102.402 19.6898C102.468 19.8484 102.5 20.0444 102.5 20.2778V29.8398C102.5 30.0824 102.468 30.2831 102.402 30.4418C102.337 30.6004 102.253 30.7264 102.15 30.8198C102.048 30.9131 101.926 30.9784 101.786 31.0158C101.656 31.0531 101.516 31.0718 101.366 31.0718ZM106.437 26.1438C106.176 26.1438 105.97 26.1158 105.821 26.0598C105.672 26.0038 105.555 25.9291 105.471 25.8358C105.396 25.7331 105.35 25.6211 105.331 25.4998C105.312 25.3691 105.303 25.2338 105.303 25.0938V20.4178C105.303 19.9511 105.415 19.6338 105.639 19.4658C105.872 19.2884 106.138 19.1998 106.437 19.1998H114.095C114.328 19.1998 114.515 19.2278 114.655 19.2838C114.795 19.3398 114.902 19.4144 114.977 19.5078C115.052 19.6011 115.098 19.7084 115.117 19.8298C115.145 19.9418 115.159 20.0584 115.159 20.1798C115.159 20.2824 115.145 20.3898 115.117 20.5018C115.098 20.6138 115.052 20.7164 114.977 20.8098C114.902 20.9031 114.795 20.9824 114.655 21.0478C114.515 21.1131 114.328 21.1458 114.095 21.1458H107.571V24.1978H114.235C114.468 24.1978 114.655 24.2304 114.795 24.2958C114.935 24.3611 115.042 24.4404 115.117 24.5338C115.192 24.6271 115.238 24.7344 115.257 24.8558C115.285 24.9678 115.299 25.0704 115.299 25.1638C115.299 25.2851 115.285 25.4064 115.257 25.5278C115.238 25.6398 115.192 25.7424 115.117 25.8358C115.042 25.9291 114.935 26.0038 114.795 26.0598C114.655 26.1158 114.468 26.1438 114.235 26.1438H106.437ZM105.429 30.9038C105.168 30.9038 104.953 30.8758 104.785 30.8198C104.617 30.7638 104.486 30.6891 104.393 30.5958C104.3 30.5118 104.234 30.4091 104.197 30.2878C104.169 30.1758 104.155 30.0638 104.155 29.9518C104.155 29.8118 104.169 29.6811 104.197 29.5598C104.234 29.4478 104.3 29.3451 104.393 29.2518C104.486 29.1678 104.617 29.0978 104.785 29.0418C104.953 28.9951 105.168 28.9718 105.429 28.9718H115.159C115.42 28.9718 115.635 28.9951 115.803 29.0418C115.971 29.0978 116.102 29.1678 116.195 29.2518C116.288 29.3451 116.349 29.4478 116.377 29.5598C116.414 29.6811 116.433 29.8118 116.433 29.9518C116.433 30.0638 116.414 30.1758 116.377 30.2878C116.349 30.4091 116.288 30.5118 116.195 30.5958C116.102 30.6891 115.971 30.7638 115.803 30.8198C115.635 30.8758 115.42 30.9038 115.159 30.9038H105.429ZM127.846 31.2258C127.547 31.2258 127.281 31.1371 127.048 30.9598C126.824 30.7918 126.712 30.4744 126.712 30.0078V28.5098H119.418C119.156 28.5098 118.942 28.4818 118.774 28.4258C118.606 28.3698 118.475 28.2998 118.382 28.2158C118.288 28.1224 118.223 28.0198 118.186 27.9078C118.158 27.7864 118.144 27.6698 118.144 27.5578C118.144 27.4178 118.158 27.2918 118.186 27.1798C118.223 27.0584 118.288 26.9558 118.382 26.8718C118.475 26.7784 118.606 26.7084 118.774 26.6618C118.942 26.6058 119.156 26.5778 119.418 26.5778H127.846C128.107 26.5778 128.312 26.6058 128.462 26.6618C128.611 26.7084 128.723 26.7784 128.798 26.8718C128.882 26.9558 128.933 27.0584 128.952 27.1798C128.97 27.2918 128.98 27.4178 128.98 27.5578V30.0078C128.98 30.2411 128.947 30.4371 128.882 30.5958C128.816 30.7544 128.732 30.8804 128.63 30.9738C128.527 31.0671 128.406 31.1324 128.266 31.1698C128.135 31.2071 127.995 31.2258 127.846 31.2258ZM120.79 23.8898V22.6578H119.642V23.8898H120.79ZM118.662 25.6818C118.4 25.6818 118.195 25.6584 118.046 25.6118C117.896 25.5558 117.78 25.4858 117.696 25.4018C117.621 25.3084 117.574 25.2058 117.556 25.0938C117.537 24.9724 117.528 24.8418 117.528 24.7018V20.4178C117.528 19.9511 117.621 19.6338 117.808 19.4658C118.004 19.2884 118.251 19.1998 118.55 19.1998C118.699 19.1998 118.839 19.2184 118.97 19.2558C119.1 19.2931 119.212 19.3584 119.306 19.4518C119.408 19.5451 119.488 19.6711 119.544 19.8298C119.609 19.9884 119.642 20.1844 119.642 20.4178V20.8658H120.79V20.4178C120.79 19.9511 120.897 19.6338 121.112 19.4658C121.326 19.2884 121.583 19.1998 121.882 19.1998C122.171 19.1998 122.414 19.2884 122.61 19.4658C122.806 19.6338 122.904 19.9511 122.904 20.4178V24.7018C122.904 24.8418 122.894 24.9724 122.876 25.0938C122.857 25.2058 122.806 25.3084 122.722 25.4018C122.647 25.4858 122.535 25.5558 122.386 25.6118C122.236 25.6584 122.031 25.6818 121.77 25.6818H118.662ZM128 25.9898C127.701 25.9898 127.458 25.9058 127.272 25.7378C127.094 25.5698 127.006 25.2431 127.006 24.7578V23.3158H125.914V24.7438C125.914 25.2291 125.825 25.5558 125.648 25.7238C125.48 25.8918 125.246 25.9758 124.948 25.9758C124.649 25.9758 124.406 25.8918 124.22 25.7238C124.042 25.5558 123.954 25.2291 123.954 24.7438V20.2778C123.954 19.8111 124.042 19.4938 124.22 19.3258C124.397 19.1484 124.635 19.0598 124.934 19.0598C125.223 19.0598 125.456 19.1484 125.634 19.3258C125.82 19.4938 125.914 19.8111 125.914 20.2778V21.4118H127.006V20.2778C127.006 19.8111 127.094 19.4938 127.272 19.3258C127.449 19.1484 127.687 19.0598 127.986 19.0598C128.275 19.0598 128.508 19.1484 128.686 19.3258C128.872 19.4938 128.966 19.8111 128.966 20.2778V24.7578C128.966 25.2431 128.877 25.5698 128.7 25.7378C128.532 25.9058 128.298 25.9898 128 25.9898ZM132.734 31.3518C132.473 31.3518 132.268 31.3238 132.118 31.2678C131.969 31.2211 131.852 31.1511 131.768 31.0578C131.694 30.9644 131.647 30.8571 131.628 30.7358C131.61 30.6144 131.6 30.4884 131.6 30.3578V28.4258C131.6 28.3324 131.61 28.2438 131.628 28.1598C131.656 28.0664 131.708 27.9871 131.782 27.9218C131.857 27.8471 131.964 27.7911 132.104 27.7538C132.244 27.7071 132.431 27.6838 132.664 27.6838H139.65V27.1938H132.538C132.146 27.1938 131.885 27.1238 131.754 26.9838C131.624 26.8344 131.558 26.6431 131.558 26.4098C131.558 26.2231 131.624 26.0504 131.754 25.8918C131.885 25.7238 132.146 25.6398 132.538 25.6398H140.868C141.092 25.6398 141.274 25.6678 141.414 25.7238C141.554 25.7704 141.662 25.8311 141.736 25.9058C141.811 25.9804 141.858 26.0644 141.876 26.1578C141.904 26.2511 141.918 26.3444 141.918 26.4378V28.4678C141.918 28.6918 141.853 28.8691 141.722 28.9998C141.592 29.1304 141.302 29.1958 140.854 29.1958H133.868V29.7838H140.952C141.214 29.7838 141.428 29.8024 141.596 29.8398C141.764 29.8864 141.895 29.9424 141.988 30.0078C142.082 30.0824 142.142 30.1664 142.17 30.2598C142.208 30.3531 142.226 30.4558 142.226 30.5678C142.226 30.6984 142.208 30.8104 142.17 30.9038C142.142 31.0064 142.082 31.0904 141.988 31.1558C141.895 31.2211 141.764 31.2678 141.596 31.2958C141.428 31.3331 141.214 31.3518 140.952 31.3518H132.734ZM131.53 25.0658C131.204 25.0658 130.966 25.0098 130.816 24.8978C130.676 24.7858 130.606 24.6038 130.606 24.3518C130.606 24.1464 130.676 23.9784 130.816 23.8478C130.966 23.7171 131.204 23.6518 131.53 23.6518H141.988C142.315 23.6518 142.548 23.7171 142.688 23.8478C142.838 23.9784 142.912 24.1464 142.912 24.3518C142.912 24.6038 142.838 24.7858 142.688 24.8978C142.548 25.0098 142.315 25.0658 141.988 25.0658H131.53ZM134.092 23.0498C133.598 23.0498 133.182 23.0124 132.846 22.9378C132.51 22.8631 132.235 22.7558 132.02 22.6158C131.815 22.4664 131.666 22.2891 131.572 22.0838C131.488 21.8784 131.446 21.6451 131.446 21.3838V21.0058C131.446 20.4831 131.666 20.0538 132.104 19.7178C132.543 19.3724 133.224 19.1998 134.148 19.1998H139.216C140.15 19.1998 140.854 19.3678 141.33 19.7038C141.816 20.0398 142.058 20.4738 142.058 21.0058V21.3838C142.058 21.6451 142.012 21.8784 141.918 22.0838C141.834 22.2891 141.69 22.4664 141.484 22.6158C141.279 22.7558 141.008 22.8631 140.672 22.9378C140.336 23.0124 139.921 23.0498 139.426 23.0498H134.092ZM138.614 21.5238C139.025 21.5238 139.328 21.5004 139.524 21.4538C139.73 21.4071 139.832 21.3091 139.832 21.1598V21.0898C139.832 20.9311 139.73 20.8331 139.524 20.7958C139.328 20.7491 139.011 20.7258 138.572 20.7258H134.932C134.494 20.7258 134.172 20.7491 133.966 20.7958C133.77 20.8331 133.672 20.9311 133.672 21.0898V21.1598C133.672 21.3091 133.77 21.4071 133.966 21.4538C134.172 21.5004 134.48 21.5238 134.89 21.5238H138.614ZM149.394 31.2258C149.133 31.2258 148.928 31.1978 148.778 31.1418C148.629 31.0951 148.512 31.0251 148.428 30.9318C148.354 30.8478 148.307 30.7451 148.288 30.6238C148.27 30.5118 148.26 30.3858 148.26 30.2458V27.4738C148.26 27.1191 148.349 26.8298 148.526 26.6058C148.713 26.3724 149.049 26.2558 149.534 26.2558H157.682C157.944 26.2558 158.149 26.2838 158.298 26.3398C158.448 26.3864 158.56 26.4564 158.634 26.5498C158.718 26.6338 158.77 26.7364 158.788 26.8578C158.807 26.9698 158.816 27.0958 158.816 27.2358V30.0078C158.816 30.4744 158.695 30.7918 158.452 30.9598C158.21 31.1371 157.906 31.2258 157.542 31.2258H149.394ZM156.548 29.3358V28.1458H150.528V29.3358H156.548ZM149.394 25.2898C149.133 25.2898 148.928 25.2664 148.778 25.2198C148.629 25.1638 148.512 25.0938 148.428 25.0098C148.354 24.9164 148.307 24.8138 148.288 24.7018C148.27 24.5804 148.26 24.4498 148.26 24.3098V20.4178C148.26 19.9511 148.372 19.6338 148.596 19.4658C148.83 19.2884 149.096 19.1998 149.394 19.1998C149.544 19.1998 149.684 19.2184 149.814 19.2558C149.954 19.2931 150.076 19.3584 150.178 19.4518C150.281 19.5451 150.365 19.6711 150.43 19.8298C150.496 19.9884 150.528 20.1844 150.528 20.4178V23.3858H152.992C153.254 23.3858 153.468 23.4138 153.636 23.4698C153.804 23.5164 153.935 23.5864 154.028 23.6798C154.122 23.7638 154.182 23.8618 154.21 23.9738C154.248 24.0858 154.266 24.1978 154.266 24.3098C154.266 24.4498 154.248 24.5804 154.21 24.7018C154.182 24.8138 154.122 24.9164 154.028 25.0098C153.935 25.0938 153.804 25.1638 153.636 25.2198C153.468 25.2664 153.254 25.2898 152.992 25.2898H149.394ZM157.402 25.5838C157.253 25.5838 157.108 25.5651 156.968 25.5278C156.838 25.4904 156.716 25.4251 156.604 25.3318C156.502 25.2384 156.418 25.1124 156.352 24.9538C156.296 24.7951 156.268 24.5944 156.268 24.3518V20.2778C156.268 19.8111 156.38 19.4938 156.604 19.3258C156.838 19.1484 157.104 19.0598 157.402 19.0598C157.552 19.0598 157.692 19.0784 157.822 19.1158C157.962 19.1531 158.084 19.2184 158.186 19.3118C158.289 19.4051 158.373 19.5311 158.438 19.6898C158.504 19.8484 158.536 20.0444 158.536 20.2778V21.2718H159.558C159.82 21.2718 160.034 21.3044 160.202 21.3698C160.37 21.4258 160.501 21.5004 160.594 21.5938C160.688 21.6871 160.748 21.7944 160.776 21.9158C160.814 22.0278 160.832 22.1398 160.832 22.2518C160.832 22.3918 160.814 22.5224 160.776 22.6438C160.748 22.7651 160.688 22.8724 160.594 22.9658C160.501 23.0498 160.37 23.1198 160.202 23.1758C160.034 23.2318 159.82 23.2598 159.558 23.2598H158.536V24.3518C158.536 24.5944 158.504 24.7951 158.438 24.9538C158.373 25.1124 158.289 25.2384 158.186 25.3318C158.084 25.4251 157.962 25.4904 157.822 25.5278C157.692 25.5651 157.552 25.5838 157.402 25.5838ZM164.895 30.8058C164.615 30.9458 164.358 30.9738 164.125 30.8898C163.901 30.8058 163.714 30.6844 163.565 30.5258C163.472 30.4418 163.406 30.3344 163.369 30.2038C163.332 30.0824 163.318 29.9518 163.327 29.8118C163.336 29.6718 163.364 29.5271 163.411 29.3778C163.467 29.2378 163.537 29.1071 163.621 28.9858C163.845 28.6684 164.027 28.3698 164.167 28.0898C164.307 27.8004 164.414 27.5158 164.489 27.2358C164.564 26.9464 164.615 26.6431 164.643 26.3258C164.671 26.0084 164.685 25.6538 164.685 25.2618V21.1598H162.305C162.044 21.1598 161.829 21.1364 161.661 21.0898C161.493 21.0338 161.362 20.9638 161.269 20.8798C161.176 20.7864 161.11 20.6838 161.073 20.5718C161.045 20.4504 161.031 20.3198 161.031 20.1798C161.031 20.0678 161.045 19.9558 161.073 19.8438C161.11 19.7224 161.176 19.6198 161.269 19.5358C161.362 19.4424 161.493 19.3678 161.661 19.3118C161.829 19.2558 162.044 19.2278 162.305 19.2278H165.931C166.183 19.2278 166.379 19.2558 166.519 19.3118C166.659 19.3584 166.766 19.4284 166.841 19.5218C166.916 19.6058 166.962 19.7131 166.981 19.8438C167 19.9744 167.009 20.1238 167.009 20.2918V25.7798C167.009 25.9664 166.995 26.1998 166.967 26.4798C166.939 26.7598 166.892 27.0631 166.827 27.3898C166.762 27.7164 166.673 28.0524 166.561 28.3978C166.458 28.7431 166.328 29.0698 166.169 29.3778C166.01 29.6858 165.824 29.9658 165.609 30.2178C165.404 30.4698 165.166 30.6658 164.895 30.8058ZM171.545 31.0718C171.396 31.0718 171.251 31.0531 171.111 31.0158C170.98 30.9784 170.859 30.9131 170.747 30.8198C170.644 30.7264 170.56 30.6004 170.495 30.4418C170.439 30.2831 170.411 30.0824 170.411 29.8398V27.7538H168.647C168.386 27.7538 168.176 27.7304 168.017 27.6838C167.858 27.6278 167.732 27.5531 167.639 27.4598C167.555 27.3664 167.499 27.2638 167.471 27.1518C167.443 27.0304 167.429 26.8998 167.429 26.7598C167.429 26.6478 167.443 26.5358 167.471 26.4238C167.499 26.3024 167.555 26.1951 167.639 26.1018C167.732 26.0084 167.858 25.9338 168.017 25.8778C168.176 25.8218 168.386 25.7938 168.647 25.7938H170.411V23.2318H168.787C168.526 23.2318 168.316 23.2084 168.157 23.1618C167.998 23.1058 167.872 23.0311 167.779 22.9378C167.695 22.8444 167.639 22.7418 167.611 22.6298C167.583 22.5084 167.569 22.3778 167.569 22.2378C167.569 22.1258 167.583 22.0138 167.611 21.9018C167.639 21.7804 167.695 21.6731 167.779 21.5798C167.872 21.4864 167.998 21.4118 168.157 21.3558C168.316 21.2998 168.526 21.2718 168.787 21.2718H170.411V20.2778C170.411 19.8111 170.523 19.4938 170.747 19.3258C170.98 19.1484 171.246 19.0598 171.545 19.0598C171.694 19.0598 171.834 19.0784 171.965 19.1158C172.105 19.1531 172.226 19.2184 172.329 19.3118C172.432 19.4051 172.516 19.5311 172.581 19.6898C172.646 19.8484 172.679 20.0444 172.679 20.2778V29.8398C172.679 30.0824 172.646 30.2831 172.581 30.4418C172.516 30.6004 172.432 30.7264 172.329 30.8198C172.226 30.9131 172.105 30.9784 171.965 31.0158C171.834 31.0531 171.694 31.0718 171.545 31.0718ZM184.806 25.3318C183.901 25.1358 183.093 24.8371 182.384 24.4358C181.684 24.0344 181.096 23.5864 180.62 23.0918C180.144 23.5678 179.565 24.0018 178.884 24.3938C178.212 24.7764 177.498 25.0564 176.742 25.2338C176.611 25.2618 176.467 25.2851 176.308 25.3038C176.159 25.3224 176.009 25.3178 175.86 25.2898C175.701 25.2524 175.552 25.1824 175.412 25.0798C175.272 24.9771 175.169 24.8184 175.104 24.6038C175.001 24.2678 175.025 23.9738 175.174 23.7218C175.333 23.4698 175.589 23.2924 175.944 23.1898C176.299 23.0871 176.658 22.9751 177.022 22.8538C177.386 22.7231 177.722 22.5784 178.03 22.4198C178.347 22.2518 178.627 22.0651 178.87 21.8598C179.113 21.6451 179.285 21.4024 179.388 21.1318H176.812C176.551 21.1318 176.336 21.1038 176.168 21.0478C176 20.9918 175.869 20.9218 175.776 20.8378C175.683 20.7444 175.617 20.6418 175.58 20.5298C175.552 20.4084 175.538 20.2918 175.538 20.1798C175.538 20.0398 175.552 19.9138 175.58 19.8018C175.617 19.6804 175.683 19.5778 175.776 19.4938C175.869 19.4004 176 19.3304 176.168 19.2838C176.336 19.2278 176.551 19.1998 176.812 19.1998H184.316C184.577 19.1998 184.792 19.2278 184.96 19.2838C185.128 19.3304 185.259 19.4004 185.352 19.4938C185.445 19.5778 185.506 19.6804 185.534 19.8018C185.571 19.9138 185.59 20.0398 185.59 20.1798C185.59 20.2918 185.571 20.4084 185.534 20.5298C185.506 20.6418 185.445 20.7444 185.352 20.8378C185.259 20.9218 185.128 20.9918 184.96 21.0478C184.792 21.1038 184.577 21.1318 184.316 21.1318H181.908C182.001 21.4024 182.146 21.6358 182.342 21.8318C182.585 22.0744 182.846 22.2844 183.126 22.4618C183.415 22.6298 183.733 22.7791 184.078 22.9098C184.423 23.0311 184.778 23.1338 185.142 23.2178C185.506 23.3018 185.777 23.4604 185.954 23.6938C186.131 23.9271 186.183 24.2164 186.108 24.5618C186.024 24.9258 185.809 25.1684 185.464 25.2898C185.361 25.3271 185.254 25.3504 185.142 25.3598C185.03 25.3691 184.918 25.3598 184.806 25.3318ZM180.592 31.0718C180.443 31.0718 180.298 31.0531 180.158 31.0158C180.027 30.9784 179.906 30.9131 179.794 30.8198C179.691 30.7264 179.607 30.6004 179.542 30.4418C179.486 30.2831 179.458 30.0824 179.458 29.8398V28.1178H175.72C175.459 28.1178 175.244 28.0898 175.076 28.0338C174.908 27.9778 174.777 27.9078 174.684 27.8238C174.591 27.7304 174.525 27.6278 174.488 27.5158C174.46 27.3944 174.446 27.2778 174.446 27.1658C174.446 27.0258 174.46 26.8998 174.488 26.7878C174.525 26.6664 174.591 26.5638 174.684 26.4798C174.777 26.3864 174.908 26.3164 175.076 26.2698C175.244 26.2138 175.459 26.1858 175.72 26.1858H185.45C185.711 26.1858 185.926 26.2138 186.094 26.2698C186.262 26.3164 186.393 26.3864 186.486 26.4798C186.579 26.5638 186.64 26.6664 186.668 26.7878C186.705 26.8998 186.724 27.0258 186.724 27.1658C186.724 27.2778 186.705 27.3944 186.668 27.5158C186.64 27.6278 186.579 27.7304 186.486 27.8238C186.393 27.9078 186.262 27.9778 186.094 28.0338C185.926 28.0898 185.711 28.1178 185.45 28.1178H181.726V29.8398C181.726 30.0824 181.693 30.2831 181.628 30.4418C181.563 30.6004 181.479 30.7264 181.376 30.8198C181.273 30.9131 181.152 30.9784 181.012 31.0158C180.881 31.0531 180.741 31.0718 180.592 31.0718ZM188.197 30.8198C188.038 30.8291 187.875 30.8011 187.707 30.7358C187.539 30.6704 187.399 30.5444 187.287 30.3578C187.1 30.0591 187.058 29.7791 187.161 29.5178C187.263 29.2564 187.459 29.0091 187.749 28.7758C188.178 28.4304 188.5 28.0898 188.715 27.7538C188.929 27.4084 189.079 27.0631 189.163 26.7178C189.256 26.3631 189.303 26.0038 189.303 25.6398V20.2778C189.303 19.8111 189.415 19.4938 189.639 19.3258C189.863 19.1484 190.124 19.0598 190.423 19.0598C190.572 19.0598 190.712 19.0784 190.843 19.1158C190.983 19.1531 191.104 19.2184 191.207 19.3118C191.309 19.4051 191.389 19.5311 191.445 19.6898C191.51 19.8484 191.543 20.0444 191.543 20.2778V24.5058C191.543 24.8978 191.543 25.2758 191.543 25.6398C191.552 26.0038 191.599 26.3584 191.683 26.7038C191.776 27.0398 191.93 27.3758 192.145 27.7118C192.359 28.0384 192.677 28.3604 193.097 28.6778C193.395 28.9018 193.591 29.1444 193.685 29.4058C193.787 29.6764 193.745 29.9611 193.559 30.2598C193.456 30.4184 193.33 30.5351 193.181 30.6098C193.041 30.6938 192.887 30.7404 192.719 30.7498C192.616 30.7498 192.509 30.7358 192.397 30.7078C192.285 30.6891 192.177 30.6424 192.075 30.5678C191.729 30.2971 191.426 30.0078 191.165 29.6998C190.903 29.4011 190.675 29.0931 190.479 28.7758C190.301 29.0744 190.096 29.3731 189.863 29.6718C189.629 29.9798 189.354 30.2738 189.037 30.5538C188.934 30.6471 188.803 30.7124 188.645 30.7498C188.495 30.7871 188.346 30.8104 188.197 30.8198ZM195.057 31.0718C194.926 31.0718 194.8 31.0531 194.679 31.0158C194.557 30.9784 194.45 30.9131 194.357 30.8198C194.273 30.7264 194.203 30.6004 194.147 30.4418C194.091 30.2831 194.063 30.0824 194.063 29.8398V25.6538H193.237C192.975 25.6538 192.765 25.6304 192.607 25.5838C192.448 25.5278 192.322 25.4578 192.229 25.3738C192.145 25.2804 192.089 25.1778 192.061 25.0658C192.033 24.9444 192.019 24.8138 192.019 24.6738C192.019 24.5618 192.033 24.4498 192.061 24.3378C192.089 24.2164 192.145 24.1138 192.229 24.0298C192.322 23.9364 192.448 23.8618 192.607 23.8058C192.765 23.7498 192.975 23.7218 193.237 23.7218H194.063V20.2778C194.063 19.8111 194.161 19.4938 194.357 19.3258C194.562 19.1484 194.795 19.0598 195.057 19.0598C195.309 19.0598 195.533 19.1484 195.729 19.3258C195.934 19.4938 196.037 19.8111 196.037 20.2778V29.8398C196.037 30.0824 196.009 30.2831 195.953 30.4418C195.897 30.6004 195.822 30.7264 195.729 30.8198C195.645 30.9131 195.542 30.9784 195.421 31.0158C195.299 31.0531 195.178 31.0718 195.057 31.0718ZM198.193 31.0718C198.062 31.0718 197.936 31.0531 197.815 31.0158C197.693 30.9784 197.586 30.9131 197.493 30.8198C197.409 30.7264 197.339 30.6004 197.283 30.4418C197.227 30.2831 197.199 30.0824 197.199 29.8398V20.2778C197.199 19.8111 197.297 19.4938 197.493 19.3258C197.698 19.1484 197.931 19.0598 198.193 19.0598C198.445 19.0598 198.669 19.1484 198.865 19.3258C199.07 19.4938 199.173 19.8111 199.173 20.2778V29.8398C199.173 30.0824 199.145 30.2831 199.089 30.4418C199.033 30.6004 198.958 30.7264 198.865 30.8198C198.781 30.9131 198.678 30.9784 198.557 31.0158C198.435 31.0531 198.314 31.0718 198.193 31.0718ZM202.185 30.9038C201.924 30.9038 201.709 30.8758 201.541 30.8198C201.373 30.7638 201.243 30.6891 201.149 30.5958C201.056 30.5118 200.991 30.4091 200.953 30.2878C200.925 30.1758 200.911 30.0638 200.911 29.9518C200.911 29.8118 200.925 29.6811 200.953 29.5598C200.991 29.4478 201.056 29.3451 201.149 29.2518C201.243 29.1678 201.373 29.0978 201.541 29.0418C201.709 28.9951 201.924 28.9718 202.185 28.9718H203.375V25.6958C202.825 25.4624 202.414 25.1078 202.143 24.6318C201.873 24.1558 201.737 23.6378 201.737 23.0778V22.2378C201.737 21.8644 201.807 21.4958 201.947 21.1318C202.087 20.7678 202.288 20.4458 202.549 20.1658C202.82 19.8764 203.137 19.6431 203.501 19.4658C203.875 19.2884 204.295 19.1998 204.761 19.1998H209.325C209.783 19.1998 210.198 19.2884 210.571 19.4658C210.945 19.6431 211.262 19.8764 211.523 20.1658C211.794 20.4458 211.999 20.7678 212.139 21.1318C212.279 21.4958 212.349 21.8644 212.349 22.2378V23.0778C212.349 23.6378 212.214 24.1558 211.943 24.6318C211.673 25.0984 211.271 25.4484 210.739 25.6818V28.9718H211.915C212.177 28.9718 212.391 28.9951 212.559 29.0418C212.727 29.0978 212.858 29.1678 212.951 29.2518C213.045 29.3451 213.105 29.4478 213.133 29.5598C213.171 29.6811 213.189 29.8118 213.189 29.9518C213.189 30.0638 213.171 30.1758 213.133 30.2878C213.105 30.4091 213.045 30.5118 212.951 30.5958C212.858 30.6891 212.727 30.7638 212.559 30.8198C212.391 30.8758 212.177 30.9038 211.915 30.9038H202.185ZM208.471 28.9718V25.9478H205.643V28.9718H208.471ZM208.905 24.0018C209.307 23.9831 209.601 23.8524 209.787 23.6098C209.983 23.3671 210.081 23.0731 210.081 22.7278V22.4198C210.081 22.0651 209.983 21.7664 209.787 21.5238C209.601 21.2718 209.293 21.1458 208.863 21.1458H205.223C204.794 21.1458 204.481 21.2718 204.285 21.5238C204.099 21.7664 204.005 22.0651 204.005 22.4198V22.7278C204.005 23.0731 204.099 23.3671 204.285 23.6098C204.481 23.8524 204.78 23.9831 205.181 24.0018H208.905ZM216.58 19.6758C216.804 19.8811 216.916 20.1424 216.916 20.4598L216.678 26.5778C216.669 26.8391 216.552 27.0444 216.328 27.1938C216.113 27.3431 215.889 27.4178 215.656 27.4178C215.348 27.4178 215.096 27.3478 214.9 27.2078C214.713 27.0584 214.615 26.8484 214.606 26.5778L214.396 20.4598C214.387 20.1424 214.489 19.8811 214.704 19.6758C214.919 19.4611 215.236 19.3538 215.656 19.3538C216.057 19.3538 216.365 19.4611 216.58 19.6758ZM214.676 30.1198C214.415 29.9144 214.284 29.6251 214.284 29.2518C214.284 28.8784 214.415 28.5844 214.676 28.3698C214.937 28.1551 215.269 28.0478 215.67 28.0478C216.071 28.0478 216.403 28.1551 216.664 28.3698C216.935 28.5844 217.07 28.8784 217.07 29.2518C217.07 29.6251 216.935 29.9144 216.664 30.1198C216.403 30.3344 216.071 30.4418 215.67 30.4418C215.269 30.4418 214.937 30.3344 214.676 30.1198Z" fill="#5E402B"/>
</g>
<defs>
<linearGradient id="paint0_linear_1476_15568" x1="358" y1="35.6249" x2="7.49974" y2="35.2249" gradientUnits="userSpaceOnUse">
<stop stop-color="#FFE063"/>
<stop offset="1" stop-color="#FFEFAD"/>
</linearGradient>
<linearGradient id="paint1_linear_1476_15568" x1="358" y1="35.6249" x2="7.49974" y2="35.2249" gradientUnits="userSpaceOnUse">
<stop stop-color="#FFE88B"/>
<stop offset="1" stop-color="#FFE16B"/>
</linearGradient>
</defs>
</svg>
