<svg width="28" height="28" viewBox="0 0 28 28" fill="none" xmlns="http://www.w3.org/2000/svg">
<path d="M27 27L20.7311 20.7311M24.1111 12.5556C24.1111 14.841 23.4334 17.0752 22.1636 18.9755C20.8939 20.8758 19.0892 22.3569 16.9777 23.2315C14.8662 24.1061 12.5427 24.3349 10.3012 23.8891C8.05962 23.4432 6.00062 22.3426 4.38455 20.7266C2.76848 19.1105 1.66792 17.0515 1.22204 14.8099C0.776168 12.5684 1.00501 10.2449 1.87962 8.13344C2.75423 6.02193 4.23534 4.2172 6.13564 2.94746C8.03594 1.67772 10.2701 1 12.5556 1C15.6203 1 18.5595 2.21746 20.7266 4.38454C22.8937 6.55163 24.1111 9.49083 24.1111 12.5556Z" stroke="#222222" stroke-width="2" stroke-linecap="round"/>
</svg>
