<svg width="22" height="22" viewBox="0 0 22 22" fill="none" xmlns="http://www.w3.org/2000/svg">
<path d="M21 21L16.1778 16.1778M18.7778 9.88889C18.7778 11.6469 18.2565 13.3655 17.2797 14.8273C16.303 16.2891 14.9148 17.4284 13.2905 18.1012C11.6663 18.7739 9.87903 18.95 8.15476 18.607C6.43048 18.264 4.84663 17.4174 3.6035 16.1743C2.36037 14.9312 1.51378 13.3473 1.1708 11.623C0.827822 9.89875 1.00385 8.11149 1.67663 6.48726C2.34941 4.86303 3.48872 3.47477 4.95049 2.49805C6.41226 1.52132 8.13084 1 9.88889 1C12.2464 1 14.5073 1.93651 16.1743 3.6035C17.8413 5.27049 18.7778 7.53141 18.7778 9.88889Z" stroke="#222222" stroke-width="2" stroke-linecap="round"/>
</svg>
