<svg width="26" height="26" viewBox="0 0 26 26" fill="none" xmlns="http://www.w3.org/2000/svg">
<g clip-path="url(#clip0_492_1510)">
<circle cx="13" cy="13" r="4" stroke="#222222" stroke-width="2"/>
<path d="M11.0066 3.82507C11.4864 1.70056 14.5136 1.70056 14.9934 3.82507V3.82507C15.3045 5.20197 16.8845 5.85645 18.0781 5.10276V5.10276C19.9197 3.93985 22.0602 6.08033 20.8972 7.92193V7.92193C20.1435 9.11546 20.798 10.6955 22.1749 11.0066V11.0066C24.2994 11.4864 24.2994 14.5136 22.1749 14.9934V14.9934C20.798 15.3045 20.1435 16.8845 20.8972 18.0781V18.0781C22.0602 19.9197 19.9197 22.0602 18.0781 20.8972V20.8972C16.8845 20.1435 15.3045 20.798 14.9934 22.1749V22.1749C14.5136 24.2994 11.4864 24.2994 11.0066 22.1749V22.1749C10.6955 20.798 9.11546 20.1435 7.92193 20.8972V20.8972C6.08033 22.0602 3.93985 19.9197 5.10277 18.0781V18.0781C5.85646 16.8845 5.20197 15.3045 3.82507 14.9934V14.9934C1.70056 14.5136 1.70056 11.4864 3.82507 11.0066V11.0066C5.20197 10.6955 5.85645 9.11546 5.10277 7.92193V7.92193C3.93985 6.08033 6.08033 3.93985 7.92193 5.10277V5.10277C9.11546 5.85645 10.6955 5.20197 11.0066 3.82507V3.82507Z" stroke="#222222" stroke-width="2"/>
</g>
<defs>
<clipPath id="clip0_492_1510">
<rect width="26" height="26" fill="white"/>
</clipPath>
</defs>
</svg>
