<svg width="24" height="24" viewBox="0 0 24 24" fill="none" xmlns="http://www.w3.org/2000/svg">
<path d="M11 5V19L7 15H4C3.73478 15 3.48043 14.8946 3.29289 14.7071C3.10536 14.5196 3 14.2652 3 14V10C3 9.73478 3.10536 9.48043 3.29289 9.29289C3.48043 9.10536 3.73478 9 4 9H7L11 5Z" stroke="#555555" stroke-width="2" stroke-linecap="round" stroke-linejoin="round"/>
<path d="M18.3594 5.64C20.0448 7.3275 20.9915 9.61499 20.9915 12C20.9915 14.385 20.0448 16.6725 18.3594 18.36" stroke="#555555" stroke-width="2" stroke-linecap="round" stroke-linejoin="round"/>
<path d="M15.5391 8.46001C16.0047 8.92446 16.3741 9.47622 16.6262 10.0837C16.8783 10.6911 17.008 11.3423 17.008 12C17.008 12.6577 16.8783 13.3089 16.6262 13.9163C16.3741 14.5238 16.0047 15.0755 15.5391 15.54" stroke="#555555" stroke-width="2" stroke-linecap="round" stroke-linejoin="round"/>
</svg>
